<svg width="385" height="126" viewBox="0 0 385 126" fill="none" xmlns="http://www.w3.org/2000/svg">
    <path d="M151.294 87.972c4.103 4.629 9.366 6.498 15.611 6.498 11.062 0 19.447-6.23 19.447-19.404V34.033h-8.921v40.944c0 6.943-4.282 11.571-11.151 11.571-4.906 0-8.207-2.492-10.704-5.34l-4.282 6.764zM199.603 70.17c0 14.598 8.385 24.3 25.067 24.3 16.681 0 24.978-9.613 24.978-24.388v-36.05h-9.01v35.871c0 10.147-5.531 16.645-15.968 16.645-10.437 0-16.057-6.498-16.057-16.645v-35.87h-9.01V70.17zM304.774 93.402h8.653v-59.37h-8.921v44.505l-32.382-44.504h-9.188v59.369h8.921V47.829l32.917 45.573zM324.12 63.762c0 17.624 12.221 30.708 29.974 30.708 17.752 0 29.973-13.084 29.973-30.708s-12.221-30.708-29.973-30.708c-17.753 0-29.974 13.084-29.974 30.708zm50.759 0c0 12.995-8.207 22.786-20.785 22.786-12.757 0-20.786-9.79-20.786-22.786 0-13.084 8.029-22.787 20.786-22.787 12.578 0 20.785 9.703 20.785 22.787z" fill="#0F0F0F"/>
    <path d="M63.597 126c-7.784-.036-27.635-1.858-44.21-18.078C1.792 90.747.342 69.118.342 62.914v-.05c.102-7.767 2.117-27.56 18.517-44.061C35.433 2.17 55.472.11 63.321 0a3.05 3.05 0 0 1 2.247.897 3.1 3.1 0 0 1 .935 2.22v13.515a3.103 3.103 0 0 1-1.917 2.878 3.122 3.122 0 0 1-1.192.239c-4.305 0-19.25 1.02-31.02 13.14A43.822 43.822 0 0 0 20.17 62.87c.03 5.106 1.189 18.122 11.458 29.259 11.872 12.893 27.49 14.021 31.99 14.057 4.349 0 19.409-1.012 31.222-13.298 10.871-11.274 12.053-24.688 12.067-29.93V3.377c0-.824.329-1.615.913-2.198a3.12 3.12 0 0 1 2.204-.911h13.473a3.112 3.112 0 0 1 2.881 1.918 3.1 3.1 0 0 1 .235 1.191v59.738c0 6.176-1.377 27.638-18.756 44.755-16.59 16.336-36.491 18.122-44.26 18.129zM6.58 62.914c0 5.647 1.356 25.114 17.155 40.568 14.966 14.629 32.867 16.277 39.86 16.299 5.458 0 24.504-1.193 39.861-16.328 15.655-15.425 16.887-34.769 16.894-40.33V6.51h-7.247v56.477c0 6.002-1.392 21.333-13.77 34.233-13.524 14.051-30.78 15.186-35.745 15.186-5.174-.043-23.003-1.33-36.57-16.068C15.322 83.624 13.966 68.7 13.923 62.914c0-6.046 1.45-21.42 13.951-34.32C39.253 16.872 53.24 14.24 60.241 13.697v-7.31c-7.784.621-23.779 3.579-36.962 16.82C8.516 38.06 6.683 55.892 6.581 62.914z" fill="#4643EE"/>
    <path d="M63.59 98.427a35.568 35.568 0 0 1-19.73-5.972 35.45 35.45 0 0 1-13.079-15.902 35.36 35.36 0 0 1-2.02-20.473 35.41 35.41 0 0 1 9.718-18.142 35.537 35.537 0 0 1 18.183-9.698 35.586 35.586 0 0 1 20.518 2.017 35.495 35.495 0 0 1 15.938 13.05 35.377 35.377 0 0 1 5.985 19.686 35.46 35.46 0 0 1-10.42 25.036A35.617 35.617 0 0 1 63.59 98.427zm0-64.685a29.34 29.34 0 0 0-16.275 4.926 29.243 29.243 0 0 0-10.789 13.118 29.169 29.169 0 0 0-1.667 16.888 29.21 29.21 0 0 0 8.017 14.965 29.314 29.314 0 0 0 15 8A29.354 29.354 0 0 0 74.8 89.976 29.28 29.28 0 0 0 87.947 79.21a29.182 29.182 0 0 0 4.937-16.238 29.233 29.233 0 0 0-8.59-20.658 29.363 29.363 0 0 0-20.704-8.572z" fill="#4643EE"/>
</svg>
